REM MD5 80c3b6fa55401dbecec78d0eb15115aa
FILE "Euro Demo 12-98 (Germany).bin" BINARY
  TRACK 01 MODE2/2352
    INDEX 01 00:00:00
  TRACK 02 AUDIO
    INDEX 00 26:21:10
    INDEX 01 26:23:10
  TRACK 03 AUDIO
    INDEX 00 26:30:50
    INDEX 01 26:32:50
  TRACK 04 AUDIO
    INDEX 00 26:40:09
    INDEX 01 26:42:09
REM LEADOUT 29:43:41
